<svg xmlns="http://www.w3.org/2000/svg" viewBox="0 0 48 48">
  <path fill="#4285F4" d="M23 11.1c3.1 0 5.5 1.1 7.1 2.1l5.3-5.3C31.7 5 27.7 3.5 23 3.5 14.4 3.5 7.4 8.7 4.4 15.9l6.3 4.9C12.9 14.9 17.5 11.1 23 11.1z"/>
  <path fill="#34A853" d="M9.7 28.2c1.4 4.1 5.2 7.1 9.3 7.8 3.6.6 7.2.1 9.8-1.4l-4.6-3.6c-1.4.9-3.4 1.2-5.2.9-2.1-.3-4-1.6-5.1-3.3L9.7 28.2z"/>
  <path fill="#FBBC05" d="M35.8 26.9c.3-1.7.3-3.4 0-5.1H23v4.1h7.7c-.3 1.6-1.3 3-2.7 3.9l4.8 3.6c2.6-2.4 4-6.1 4-10.5 0-.8 0-1.6-.1-2.3h-1.9z"/>
  <path fill="#EA4335" d="M23 42.5c4.7 0 8.7-1.5 11.5-4.1l-5.5-4.3c-2.1 1.5-5 2.2-7.9 2.2-4.7 0-8.6-2.9-10.1-7.1L4.4 30.6C7.4 37.8 14.4 42.5 23 42.5z"/>
</svg>
